<?xml version="1.0" encoding="iso-8859-1"?>
<!-- Uploaded to: SVG Repo, www.svgrepo.com, Generator: SVG Repo Mixer Tools -->
<svg version="1.1" id="Layer_1" xmlns="http://www.w3.org/2000/svg" xmlns:xlink="http://www.w3.org/1999/xlink" 
	 viewBox="0 0 511.986 511.986" xml:space="preserve">
<rect y="27.36" style="fill:#ED5564;" width="362.66" height="479.28"/>
<rect x="21.344" y="91.355" style="fill:#AAB2BC;" width="319.99" height="393.98"/>
<rect x="21.344" y="70.015" style="fill:#CCD1D9;" width="319.99" height="393.97"/>
<rect x="21.344" y="48.687" style="fill:#E6E9ED;" width="319.99" height="393.96"/>
<g>
	<path style="fill:#CCD1D9;" d="M53.343,5.346c-5.891,0-10.672,4.765-10.672,10.655l0,0v42.671l0,0
		c0,5.891,4.781,10.672,10.672,10.672s10.655-4.781,10.655-10.672V16.001C63.998,10.11,59.233,5.346,53.343,5.346z"/>
	<path style="fill:#CCD1D9;" d="M117.341,5.346c-5.891,0-10.672,4.765-10.672,10.655l0,0v42.671l0,0
		c0,5.891,4.781,10.672,10.672,10.672s10.656-4.781,10.656-10.672V16.001C127.997,10.11,123.231,5.346,117.341,5.346z"/>
	<path style="fill:#CCD1D9;" d="M181.339,5.346c-5.891,0-10.671,4.765-10.671,10.655l0,0v42.671l0,0
		c0,5.891,4.78,10.672,10.671,10.672s10.656-4.781,10.656-10.672V16.001C191.995,10.11,187.229,5.346,181.339,5.346z"/>
	<path style="fill:#CCD1D9;" d="M245.338,5.346c-5.891,0-10.672,4.765-10.672,10.655l0,0v42.671l0,0
		c0,5.891,4.781,10.672,10.672,10.672s10.656-4.781,10.656-10.672V16.001C255.994,10.11,251.228,5.346,245.338,5.346z"/>
	<path style="fill:#CCD1D9;" d="M309.336,5.346c-5.906,0-10.672,4.765-10.672,10.655l0,0v42.671l0,0
		c0,5.891,4.766,10.672,10.672,10.672c5.875,0,10.656-4.781,10.656-10.672V16.001C319.992,10.11,315.211,5.346,309.336,5.346z"/>
</g>
<polygon style="fill:#FFCE54;" points="483.488,335.993 455.16,335.993 426.661,435.552 469.332,463.989 511.986,435.552 "/>
<path style="fill:#656D78;" d="M469.332,58.672c-23.578,0-42.671,19.109-42.671,42.671v287.992h85.325V101.343
	C511.986,77.781,492.893,58.672,469.332,58.672z"/>
<g>
	<path style="fill:#434A54;" d="M266.665,186.669H95.998c-5.891,0-10.656-4.766-10.656-10.656c0-5.906,4.766-10.672,10.656-10.672
		h170.667c5.891,0,10.672,4.766,10.672,10.672C277.337,181.903,272.555,186.669,266.665,186.669z"/>
	<path style="fill:#434A54;" d="M266.665,240.011H95.998c-5.891,0-10.656-4.781-10.656-10.672c0-5.89,4.766-10.671,10.656-10.671
		h170.667c5.891,0,10.672,4.781,10.672,10.671C277.337,235.229,272.555,240.011,266.665,240.011z"/>
	<path style="fill:#434A54;" d="M266.665,293.337H95.998c-5.891,0-10.656-4.78-10.656-10.687c0-5.875,4.766-10.656,10.656-10.656
		h170.667c5.891,0,10.672,4.781,10.672,10.656C277.337,288.557,272.555,293.337,266.665,293.337z"/>
	<path style="fill:#434A54;" d="M181.339,346.648H95.998c-5.891,0-10.656-4.781-10.656-10.655c0-5.906,4.766-10.656,10.656-10.656
		h85.341c5.891,0,10.656,4.75,10.656,10.656C191.995,341.867,187.229,346.648,181.339,346.648z"/>
</g>
</svg>